<mxfile host="Electron" modified="2024-07-01T07:09:29.419Z" agent="Mozilla/5.0 (Windows NT 10.0; Win64; x64) AppleWebKit/537.36 (KHTML, like Gecko) draw.io/22.0.3 Chrome/114.0.5735.289 Electron/25.8.4 Safari/537.36" etag="WKUT9EgBeAy1nAlquZEM" version="22.0.3" type="device">
  <diagram id="R2lEEEUBdFMjLlhIrx00" name="Page-1">
    <mxGraphModel dx="1206" dy="857" grid="1" gridSize="10" guides="1" tooltips="1" connect="1" arrows="1" fold="1" page="1" pageScale="1" pageWidth="850" pageHeight="1100" math="0" shadow="0" extFonts="Permanent Marker^https://fonts.googleapis.com/css?family=Permanent+Marker">
      <root>
        <mxCell id="0" />
        <mxCell id="1" parent="0" />
        <mxCell id="vb_KjTMsUnT20dyh5Ikz-1" value="record" style="whiteSpace=wrap;html=1;aspect=fixed;" parent="1" vertex="1">
          <mxGeometry x="680" y="358" width="80" height="80" as="geometry" />
        </mxCell>
        <mxCell id="vb_KjTMsUnT20dyh5Ikz-2" value="bot" style="whiteSpace=wrap;html=1;aspect=fixed;" parent="1" vertex="1">
          <mxGeometry x="80" y="358" width="80" height="80" as="geometry" />
        </mxCell>
        <mxCell id="vb_KjTMsUnT20dyh5Ikz-3" value="user" style="whiteSpace=wrap;html=1;aspect=fixed;" parent="1" vertex="1">
          <mxGeometry x="390" y="358" width="80" height="80" as="geometry" />
        </mxCell>
        <mxCell id="vb_KjTMsUnT20dyh5Ikz-5" value="id" style="rhombus;whiteSpace=wrap;html=1;" parent="1" vertex="1">
          <mxGeometry x="230" y="358" width="80" height="80" as="geometry" />
        </mxCell>
        <mxCell id="vb_KjTMsUnT20dyh5Ikz-6" value="id" style="rhombus;whiteSpace=wrap;html=1;" parent="1" vertex="1">
          <mxGeometry x="530" y="358" width="80" height="80" as="geometry" />
        </mxCell>
        <mxCell id="vb_KjTMsUnT20dyh5Ikz-7" value="" style="endArrow=none;html=1;rounded=0;exitX=1;exitY=0.5;exitDx=0;exitDy=0;entryX=0;entryY=0.5;entryDx=0;entryDy=0;" parent="1" source="vb_KjTMsUnT20dyh5Ikz-6" target="vb_KjTMsUnT20dyh5Ikz-1" edge="1">
          <mxGeometry width="50" height="50" relative="1" as="geometry">
            <mxPoint x="710" y="478" as="sourcePoint" />
            <mxPoint x="680" y="408" as="targetPoint" />
          </mxGeometry>
        </mxCell>
        <mxCell id="vb_KjTMsUnT20dyh5Ikz-15" value="n" style="edgeLabel;html=1;align=center;verticalAlign=middle;resizable=0;points=[];" parent="vb_KjTMsUnT20dyh5Ikz-7" vertex="1" connectable="0">
          <mxGeometry x="-0.3524" relative="1" as="geometry">
            <mxPoint as="offset" />
          </mxGeometry>
        </mxCell>
        <mxCell id="vb_KjTMsUnT20dyh5Ikz-9" value="" style="endArrow=none;html=1;rounded=0;exitX=1;exitY=0.5;exitDx=0;exitDy=0;entryX=0;entryY=0.5;entryDx=0;entryDy=0;" parent="1" source="vb_KjTMsUnT20dyh5Ikz-5" target="vb_KjTMsUnT20dyh5Ikz-3" edge="1">
          <mxGeometry width="50" height="50" relative="1" as="geometry">
            <mxPoint x="400" y="478" as="sourcePoint" />
            <mxPoint x="450" y="428" as="targetPoint" />
          </mxGeometry>
        </mxCell>
        <mxCell id="vb_KjTMsUnT20dyh5Ikz-12" value="1" style="edgeLabel;html=1;align=center;verticalAlign=middle;resizable=0;points=[];" parent="vb_KjTMsUnT20dyh5Ikz-9" vertex="1" connectable="0">
          <mxGeometry x="-0.1333" y="-3" relative="1" as="geometry">
            <mxPoint as="offset" />
          </mxGeometry>
        </mxCell>
        <mxCell id="vb_KjTMsUnT20dyh5Ikz-10" value="" style="endArrow=none;html=1;rounded=0;exitX=1;exitY=0.5;exitDx=0;exitDy=0;entryX=0;entryY=0.5;entryDx=0;entryDy=0;" parent="1" source="vb_KjTMsUnT20dyh5Ikz-3" target="vb_KjTMsUnT20dyh5Ikz-6" edge="1">
          <mxGeometry width="50" height="50" relative="1" as="geometry">
            <mxPoint x="710" y="478" as="sourcePoint" />
            <mxPoint x="760" y="428" as="targetPoint" />
          </mxGeometry>
        </mxCell>
        <mxCell id="vb_KjTMsUnT20dyh5Ikz-14" value="1" style="edgeLabel;html=1;align=center;verticalAlign=middle;resizable=0;points=[];" parent="vb_KjTMsUnT20dyh5Ikz-10" vertex="1" connectable="0">
          <mxGeometry x="-0.1111" y="-2" relative="1" as="geometry">
            <mxPoint as="offset" />
          </mxGeometry>
        </mxCell>
        <mxCell id="vb_KjTMsUnT20dyh5Ikz-11" value="" style="endArrow=none;html=1;rounded=0;exitX=1;exitY=0.5;exitDx=0;exitDy=0;entryX=0;entryY=0.5;entryDx=0;entryDy=0;" parent="1" source="vb_KjTMsUnT20dyh5Ikz-2" target="vb_KjTMsUnT20dyh5Ikz-5" edge="1">
          <mxGeometry width="50" height="50" relative="1" as="geometry">
            <mxPoint x="-60" y="358" as="sourcePoint" />
            <mxPoint x="-10" y="308" as="targetPoint" />
          </mxGeometry>
        </mxCell>
        <mxCell id="vb_KjTMsUnT20dyh5Ikz-13" value="n" style="edgeLabel;html=1;align=center;verticalAlign=middle;resizable=0;points=[];" parent="vb_KjTMsUnT20dyh5Ikz-11" vertex="1" connectable="0">
          <mxGeometry x="-0.0667" y="-2" relative="1" as="geometry">
            <mxPoint as="offset" />
          </mxGeometry>
        </mxCell>
      </root>
    </mxGraphModel>
  </diagram>
</mxfile>
